<?xml version="1.0" encoding="utf-8"?>
<!-- Generator: Adobe Illustrator 14.0.0, SVG Export Plug-In . SVG Version: 6.00 Build 43363)  -->
<!DOCTYPE svg PUBLIC "-//W3C//DTD SVG 1.1//EN" "http://www.w3.org/Graphics/SVG/1.1/DTD/svg11.dtd">
<svg version="1.1" id="Layer_1" xmlns="http://www.w3.org/2000/svg" xmlns:xlink="http://www.w3.org/1999/xlink" x="0px" y="0px"
	 width="442px" height="442px" viewBox="0 0 442 442" enable-background="new 0 0 442 442" xml:space="preserve">
<g>
	<g>
		<path fill="none" d="M165.331,129.042l48.07-48.068c2.017-2.017,4.75-3.15,7.6-3.15c2.847,0,5.58,1.133,7.595,3.15l48.072,48.068"
			/>
		<polygon fill="none" points="258.56,141.323 221.001,103.763 183.437,141.326 221.001,166.802 		"/>
		<g>
			<path fill="none" d="M50.893,51.419c14.66-12.869,33.862-20.686,54.897-20.686h230.42c21.036,0,40.239,7.817,54.898,20.686"/>
			<path fill="#2C82FF" d="M221.001,166.802L391.108,51.419c-14.659-12.869-33.863-20.686-54.898-20.686H105.79
				c-21.035,0-40.238,7.817-54.897,20.686L221.001,166.802z"/>
			<path fill="#2C82FF" d="M406.136,258.515c8.429-13.025,13.343-28.522,13.343-45.187v-99.324c0-17.145-5.188-33.074-14.07-46.32
				l-113.267,76.828L406.136,258.515z"/>
			<path fill="#2C82FF" d="M22.521,114.004v99.324c0,16.665,4.913,32.162,13.343,45.187L149.86,144.511L36.59,67.684
				C27.709,80.929,22.521,96.857,22.521,114.004z"/>
			<path fill="#2C82FF" d="M221.001,190.527c-2.107,0-4.212-0.614-6.031-1.852l-47.004-31.88L49.803,274.962
				c14.789,13.441,34.431,21.634,55.987,21.634h230.42c21.555,0,41.198-8.192,55.987-21.634L274.029,156.794l-46.998,31.881
				C225.21,189.913,223.105,190.527,221.001,190.527z"/>
			<path fill="#F9F9FA" d="M292.142,144.511l113.267-76.828c-4.045-6.027-8.867-11.49-14.3-16.264l-114.44,77.622l-18.108,12.282
				l-37.559,25.478l-37.564-25.475l-18.106-12.284L50.893,51.419c-5.437,4.774-10.259,10.237-14.303,16.264l113.27,76.828
				L35.865,258.515c3.929,6.066,8.61,11.605,13.938,16.447l118.165-118.167l47.002,31.88c1.82,1.238,3.925,1.852,6.031,1.852
				c2.104,0,4.209-0.614,6.03-1.852l46.998-31.88l118.167,118.167c5.334-4.842,10.011-10.381,13.939-16.447L292.142,144.511z"/>
		</g>
	</g>
	<g>
		<g>
			<g>
				<path fill="#2C82FF" d="M365.527,363.645c3.243,0,5.592,2.572,5.592,5.815s-2.349,5.813-5.592,5.813
					c-3.242,0-5.593-2.57-5.593-5.813S362.283,363.645,365.527,363.645z"/>
				<path fill="#2C82FF" d="M377.158,338.367c0-2.798,2.237-4.811,5.369-4.811c3.13,0,5.367,2.013,5.367,4.811
					c0,2.796-2.237,4.809-5.367,4.809C379.396,343.176,377.158,341.163,377.158,338.367z M377.717,346.644h9.619v27.962h-9.619
					V346.644z"/>
				<path fill="#2C82FF" d="M406.234,345.972c7.159,0,13.87,5.368,13.87,14.654c0,9.282-6.711,14.65-13.87,14.65
					c-7.157,0-13.868-5.368-13.868-14.65C392.366,351.34,399.077,345.972,406.234,345.972z M406.234,367.558
					c2.908,0,4.027-2.684,4.027-6.932c0-4.253-1.119-6.938-4.027-6.938s-4.024,2.686-4.024,6.938
					C402.21,364.874,403.326,367.558,406.234,367.558z"/>
			</g>
		</g>
		<g>
			<g>
				<g>
					<path fill="#2E343D" d="M21.896,321.43h14.563l8.345,22.091l2.945,8.671h0.327l2.944-8.671l8.02-22.091h14.566v53.186H60.511
						v-15.708c0-5.404,1.146-13.668,1.797-18.984h-0.326l-4.416,12.437l-7.36,17.912h-5.24l-7.366-17.912l-4.253-12.437h-0.326
						c0.656,5.316,1.799,13.58,1.799,18.984v15.708H21.896V321.43z"/>
					<path fill="#2E343D" d="M105.205,348.104c-0.318-2.946-2.117-4.25-5.715-4.25c-2.944,0-6.063,1.146-10.31,3.439l-4.917-9.17
						c5.729-3.437,11.618-5.395,17.999-5.395c10.646,0,17.028,5.723,17.028,19.145v22.742h-11.461l-0.983-3.93h-0.318
						c-3.28,2.944-6.876,4.906-11.299,4.906c-7.688,0-12.271-5.893-12.271-12.594C82.956,354.487,89.499,349.741,105.205,348.104z
						 M100.144,364.795c2.292,0,3.595-1.146,5.061-2.783v-5.563c-6.702,0.979-8.833,3.112-8.833,5.404
						C96.372,363.73,97.678,364.795,100.144,364.795z"/>
					<path fill="#2E343D" d="M127.816,321.602c0-4.095,3.277-7.041,7.858-7.041c4.57,0,7.848,2.946,7.848,7.041
						c0,4.093-3.278,7.037-7.848,7.037C131.092,328.639,127.816,325.694,127.816,321.602z M128.628,333.708h14.081v40.907h-14.081
						V333.708z"/>
					<path fill="#2E343D" d="M152.209,317.674h14.068v43.033c0,2.784,1.305,3.596,2.292,3.596c0.495,0,0.813,0,1.478-0.161
						l1.625,10.307c-1.463,0.653-3.756,1.146-6.859,1.146c-9.499,0-12.604-6.214-12.604-15.38V317.674L152.209,317.674z"/>
				</g>
			</g>
			<g>
				<g>
					<path fill="#2E343D" d="M225.178,411.266l-24.712-54.49h-5.398v17.84h-14.075V321.43h20.126
						c11.456,0,21.273,3.93,21.273,17.187c0,7.608-3.435,12.597-8.592,15.375l27.086,57.274H225.178z M195.069,345.653h5.07
						c5.562,0,8.507-2.453,8.507-7.037c0-4.583-2.945-6.055-8.507-6.055h-5.07V345.653z"/>
					<path fill="#2E343D" d="M231.088,333.708h14.074v23.402c0,5.234,1.306,6.539,4.091,6.539c2.619,0,4.092-0.984,5.89-3.598
						v-26.344h14.068v40.907h-11.452l-0.987-5.401h-0.321c-3.273,3.92-7.036,6.381-12.6,6.381c-8.999,0-12.763-6.549-12.763-16.688
						V333.708L231.088,333.708z"/>
					<path fill="#2E343D" d="M281.674,361.198c3.766,2.778,7.124,4.088,9.986,4.088c2.943,0,4.089-0.823,4.089-2.456
						c0-2.125-3.762-3.108-7.85-4.748c-4.745-1.877-10.315-5.397-10.315-12.104c0-8.016,6.549-13.25,16.201-13.25
						c6.709,0,11.45,2.697,15.054,5.395l-6.22,8.344c-2.943-2.12-5.81-3.435-8.339-3.435c-2.372,0-3.604,0.653-3.604,2.293
						c0,2.125,3.604,2.943,7.694,4.416c4.905,1.8,10.469,4.911,10.469,12.271c0,7.69-6.054,13.583-17.503,13.583
						c-5.24,0-11.621-2.291-15.877-5.73L281.674,361.198z"/>
					<path fill="#2E343D" d="M315.728,317.674h14.077v13.255l-0.66,7.034c2.782-2.458,6.714-5.234,12.277-5.234
						c8.999,0,12.758,6.541,12.758,16.687v25.2h-14.07v-23.402c0-5.234-1.307-6.549-4.089-6.549c-2.619,0-4.094,1.146-6.214,3.119
						v26.832h-14.079V317.674z"/>
				</g>
			</g>
		</g>
	</g>
</g>
</svg>
