<?xml version="1.0" encoding="utf-8"?>
<!-- Generator: Adobe Illustrator 14.0.0, SVG Export Plug-In . SVG Version: 6.00 Build 43363)  -->
<!DOCTYPE svg PUBLIC "-//W3C//DTD SVG 1.1//EN" "http://www.w3.org/Graphics/SVG/1.1/DTD/svg11.dtd">
<svg version="1.1" id="Layer_1" xmlns="http://www.w3.org/2000/svg" xmlns:xlink="http://www.w3.org/1999/xlink" x="0px" y="0px"
	 width="16px" height="16px" viewBox="0 0 16 16" enable-background="new 0 0 16 16" xml:space="preserve">
<g>
	<g>
		<path fill="none" d="M5.764,6.609l1.931-1.932C7.775,4.596,7.886,4.55,8,4.55s0.225,0.046,0.306,0.127l1.931,1.932"/>
		<polygon fill="none" points="9.509,7.102 8,5.593 6.491,7.102 8,8.125 		"/>
		<g>
			<path fill="none" d="M1.165,3.49c0.589-0.517,1.36-0.831,2.206-0.831h9.258c0.846,0,1.617,0.314,2.206,0.831"/>
			<path fill="#2C82FF" d="M8,8.125l6.835-4.636c-0.589-0.517-1.36-0.831-2.206-0.831H3.371c-0.846,0-1.617,0.314-2.206,0.831
				L8,8.125z"/>
			<path fill="#2C82FF" d="M15.438,11.811c0.339-0.523,0.536-1.146,0.536-1.814V6.004c0-0.688-0.208-1.329-0.565-1.861L10.858,7.23
				L15.438,11.811z"/>
			<path fill="#2C82FF" d="M0.025,6.004v3.992c0,0.668,0.197,1.291,0.536,1.814l4.58-4.581L0.591,4.143
				C0.233,4.675,0.025,5.316,0.025,6.004z"/>
			<path fill="#2C82FF" d="M8,9.078c-0.085,0-0.169-0.023-0.242-0.074l-1.889-1.28l-4.748,4.747c0.595,0.541,1.384,0.871,2.25,0.871
				h9.258c0.866,0,1.655-0.33,2.25-0.871l-4.748-4.747l-1.889,1.28C8.169,9.055,8.085,9.078,8,9.078z"/>
			<path fill="#F9F9FA" d="M10.858,7.23l4.551-3.087c-0.162-0.242-0.356-0.462-0.574-0.653l-4.599,3.119L9.509,7.102L8,8.125
				L6.491,7.102L5.764,6.609L1.165,3.49C0.946,3.681,0.753,3.901,0.591,4.143L5.142,7.23l-4.58,4.581
				c0.157,0.244,0.346,0.467,0.56,0.66l4.748-4.747l1.889,1.28C7.831,9.055,7.915,9.078,8,9.078s0.169-0.023,0.242-0.074l1.889-1.28
				l4.748,4.747c0.214-0.193,0.402-0.416,0.56-0.66L10.858,7.23z"/>
		</g>
	</g>
</g>
</svg>
